<svg version="1.1" viewBox="0.0 0.0 1073.6640419947507 487.38320209973756" fill="none" stroke="none" stroke-linecap="square" stroke-miterlimit="10" xmlns:xlink="http://www.w3.org/1999/xlink" xmlns="http://www.w3.org/2000/svg"><clipPath id="p.0"><path d="m0 0l1073.6641 0l0 487.3832l-1073.6641 0l0 -487.3832z" clip-rule="nonzero"/></clipPath><g clip-path="url(#p.0)"><path fill="#000000" fill-opacity="0.0" d="m0 0l1073.6641 0l0 487.3832l-1073.6641 0z" fill-rule="evenodd"/><path fill="#cfe2f3" d="m463.021 109.38058l0 0c0 -11.289223 9.151733 -20.44094 20.440948 -20.44094l106.74014 0c5.4212646 0 10.620544 2.1535873 14.453918 5.987007c3.833435 3.8334274 5.9870605 9.032661 5.9870605 14.453934l0 81.76379c0 11.289215 -9.151733 20.440933 -20.440979 20.440933l-106.74014 0c-11.289215 0 -20.440948 -9.151718 -20.440948 -20.440933z" fill-rule="evenodd"/><path stroke="#000000" stroke-width="1.0" stroke-linejoin="round" stroke-linecap="butt" d="m463.021 109.38058l0 0c0 -11.289223 9.151733 -20.44094 20.440948 -20.44094l106.74014 0c5.4212646 0 10.620544 2.1535873 14.453918 5.987007c3.833435 3.8334274 5.9870605 9.032661 5.9870605 14.453934l0 81.76379c0 11.289215 -9.151733 20.440933 -20.440979 20.440933l-106.74014 0c-11.289215 0 -20.440948 -9.151718 -20.440948 -20.440933z" fill-rule="evenodd"/><path fill="#000000" d="m488.97122 143.82309l1.765625 0l0 7.71875q0 2.015625 -0.453125 3.203125q-0.453125 1.1875 -1.640625 1.9375q-1.1875 0.734375 -3.125 0.734375q-1.875 0 -3.078125 -0.640625q-1.1875 -0.65625 -1.703125 -1.875q-0.5 -1.234375 -0.5 -3.359375l0 -7.71875l1.765625 0l0 7.71875q0 1.734375 0.3125 2.5625q0.328125 0.8125 1.109375 1.265625q0.796875 0.453125 1.9375 0.453125q1.953125 0 2.78125 -0.890625q0.828125 -0.890625 0.828125 -3.390625l0 -7.71875zm3.847931 10.46875l1.625 -0.25q0.125 0.96875 0.75 1.5q0.625 0.515625 1.75 0.515625q1.125 0 1.671875 -0.453125q0.546875 -0.46875 0.546875 -1.09375q0 -0.546875 -0.484375 -0.875q-0.328125 -0.21875 -1.671875 -0.546875q-1.8125 -0.46875 -2.515625 -0.796875q-0.6875 -0.328125 -1.046875 -0.90625q-0.359375 -0.59375 -0.359375 -1.3125q0 -0.640625 0.296875 -1.1875q0.296875 -0.5625 0.8125 -0.921875q0.375 -0.28125 1.03125 -0.46875q0.671875 -0.203125 1.421875 -0.203125q1.140625 0 2.0 0.328125q0.859375 0.328125 1.265625 0.890625q0.421875 0.5625 0.578125 1.5l-1.609375 0.21875q-0.109375 -0.75 -0.640625 -1.171875q-0.515625 -0.421875 -1.46875 -0.421875q-1.140625 0 -1.625 0.375q-0.46875 0.375 -0.46875 0.875q0 0.3125 0.1875 0.578125q0.203125 0.265625 0.640625 0.4375q0.234375 0.09375 1.4375 0.421875q1.75 0.453125 2.4375 0.75q0.6875 0.296875 1.078125 0.859375q0.390625 0.5625 0.390625 1.40625q0 0.828125 -0.484375 1.546875q-0.46875 0.71875 -1.375 1.125q-0.90625 0.390625 -2.046875 0.390625q-1.875 0 -2.875 -0.78125q-0.984375 -0.78125 -1.25 -2.328125zm16.609375 -0.21875l1.6875 0.203125q-0.40625 1.484375 -1.484375 2.3125q-1.078125 0.8125 -2.765625 0.8125q-2.125 0 -3.375 -1.296875q-1.234375 -1.3125 -1.234375 -3.671875q0 -2.453125 1.25 -3.796875q1.265625 -1.34375 3.265625 -1.34375q1.9375 0 3.15625 1.328125q1.234375 1.3125 1.234375 3.703125q0 0.15625 0 0.4375l-7.21875 0q0.09375 1.59375 0.90625 2.453125q0.8125 0.84375 2.015625 0.84375q0.90625 0 1.546875 -0.46875q0.640625 -0.484375 1.015625 -1.515625zm-5.390625 -2.65625l5.40625 0q-0.109375 -1.21875 -0.625 -1.828125q-0.78125 -0.953125 -2.03125 -0.953125q-1.125 0 -1.90625 0.765625q-0.765625 0.75 -0.84375 2.015625zm9.125732 5.765625l0 -9.671875l1.46875 0l0 1.46875q0.5625 -1.03125 1.03125 -1.359375q0.484375 -0.328125 1.0625 -0.328125q0.828125 0 1.6875 0.53125l-0.5625 1.515625q-0.609375 -0.359375 -1.203125 -0.359375q-0.546875 0 -0.96875 0.328125q-0.421875 0.328125 -0.609375 0.890625q-0.28125 0.875 -0.28125 1.921875l0 5.0625l-1.625 0zm11.708496 0l0 -13.359375l9.015625 0l0 1.578125l-7.25 0l0 4.140625l6.265625 0l0 1.578125l-6.265625 0l0 6.0625l-1.765625 0zm17.427185 0l0 -1.421875q-1.125 1.640625 -3.0625 1.640625q-0.859375 0 -1.609375 -0.328125q-0.734375 -0.328125 -1.09375 -0.828125q-0.359375 -0.5 -0.5 -1.21875q-0.109375 -0.46875 -0.109375 -1.53125l0 -5.984375l1.640625 0l0 5.359375q0 1.28125 0.109375 1.734375q0.15625 0.640625 0.65625 1.015625q0.5 0.375 1.234375 0.375q0.734375 0 1.375 -0.375q0.65625 -0.390625 0.921875 -1.03125q0.265625 -0.65625 0.265625 -1.890625l0 -5.1875l1.640625 0l0 9.671875l-1.46875 0zm4.0476074 0l0 -9.671875l1.46875 0l0 1.375q1.0625 -1.59375 3.078125 -1.59375q0.875 0 1.609375 0.3125q0.734375 0.3125 1.09375 0.828125q0.375 0.5 0.515625 1.203125q0.09375 0.453125 0.09375 1.59375l0 5.953125l-1.640625 0l0 -5.890625q0 -1.0 -0.203125 -1.484375q-0.1875 -0.5 -0.671875 -0.796875q-0.484375 -0.296875 -1.140625 -0.296875q-1.046875 0 -1.8125 0.671875q-0.75 0.65625 -0.75 2.515625l0 5.28125l-1.640625 0zm16.688232 -3.546875l1.609375 0.21875q-0.265625 1.65625 -1.359375 2.609375q-1.078125 0.9375 -2.671875 0.9375q-1.984375 0 -3.1875 -1.296875q-1.203125 -1.296875 -1.203125 -3.71875q0 -1.578125 0.515625 -2.75q0.515625 -1.171875 1.578125 -1.75q1.0625 -0.59375 2.3125 -0.59375q1.578125 0 2.578125 0.796875q1.0 0.796875 1.28125 2.265625l-1.59375 0.234375q-0.234375 -0.96875 -0.8125 -1.453125q-0.578125 -0.5 -1.390625 -0.5q-1.234375 0 -2.015625 0.890625q-0.78125 0.890625 -0.78125 2.8125q0 1.953125 0.75 2.84375q0.75 0.875 1.953125 0.875q0.96875 0 1.609375 -0.59375q0.65625 -0.59375 0.828125 -1.828125zm6.59375 2.078125l0.234375 1.453125q-0.6875 0.140625 -1.234375 0.140625q-0.890625 0 -1.390625 -0.28125q-0.484375 -0.28125 -0.6875 -0.734375q-0.203125 -0.46875 -0.203125 -1.9375l0 -5.578125l-1.203125 0l0 -1.265625l1.203125 0l0 -2.390625l1.625 -0.984375l0 3.375l1.65625 0l0 1.265625l-1.65625 0l0 5.671875q0 0.6875 0.078125 0.890625q0.09375 0.203125 0.28125 0.328125q0.203125 0.109375 0.578125 0.109375q0.265625 0 0.71875 -0.0625zm1.6051636 -10.0l0 -1.890625l1.640625 0l0 1.890625l-1.640625 0zm0 11.46875l0 -9.671875l1.640625 0l0 9.671875l-1.640625 0zm3.5354614 -4.84375q0 -2.6875 1.484375 -3.96875q1.25 -1.078125 3.046875 -1.078125q2.0 0 3.265625 1.3125q1.265625 1.296875 1.265625 3.609375q0 1.859375 -0.5625 2.9375q-0.5625 1.0625 -1.640625 1.65625q-1.0625 0.59375 -2.328125 0.59375q-2.03125 0 -3.28125 -1.296875q-1.25 -1.3125 -1.25 -3.765625zm1.6875 0q0 1.859375 0.796875 2.796875q0.8125 0.921875 2.046875 0.921875q1.21875 0 2.03125 -0.921875q0.8125 -0.9375 0.8125 -2.84375q0 -1.796875 -0.8125 -2.71875q-0.8125 -0.921875 -2.03125 -0.921875q-1.234375 0 -2.046875 0.921875q-0.796875 0.90625 -0.796875 2.765625zm9.297607 4.84375l0 -9.671875l1.46875 0l0 1.375q1.0625 -1.59375 3.078125 -1.59375q0.875 0 1.609375 0.3125q0.734375 0.3125 1.09375 0.828125q0.375 0.5 0.515625 1.203125q0.09375 0.453125 0.09375 1.59375l0 5.953125l-1.640625 0l0 -5.890625q0 -1.0 -0.203125 -1.484375q-0.1875 -0.5 -0.671875 -0.796875q-0.484375 -0.296875 -1.140625 -0.296875q-1.046875 0 -1.8125 0.671875q-0.75 0.65625 -0.75 2.515625l0 5.28125l-1.640625 0z" fill-rule="nonzero"/><path fill="#cfe2f3" d="m27.979002 73.49606l0 0c0 -5.215538 4.2280293 -9.443573 9.443571 -9.443573l55.664043 0c2.5045853 0 4.9065933 0.99494934 6.6776123 2.7659607c1.7710114 1.7710114 2.765953 4.1730194 2.765953 6.6776123l0 37.774277c0 5.215538 -4.2280273 9.443573 -9.443565 9.443573l-55.664043 0l0 0c-5.215542 0 -9.443571 -4.228035 -9.443571 -9.443573z" fill-rule="evenodd"/><path stroke="#000000" stroke-width="1.0" stroke-linejoin="round" stroke-linecap="butt" d="m27.979002 73.49606l0 0c0 -5.215538 4.2280293 -9.443573 9.443571 -9.443573l55.664043 0c2.5045853 0 4.9065933 0.99494934 6.6776123 2.7659607c1.7710114 1.7710114 2.765953 4.1730194 2.765953 6.6776123l0 37.774277c0 5.215538 -4.2280273 9.443573 -9.443565 9.443573l-55.664043 0l0 0c-5.215542 0 -9.443571 -4.228035 -9.443571 -9.443573z" fill-rule="evenodd"/><path fill="#cfe2f3" d="m134.83727 148.55118l0 0c0 -5.2155304 4.2280426 -9.443573 9.443573 -9.443573l55.664047 0c2.504593 0 4.906601 0.99494934 6.6776123 2.7659607c1.7710114 1.7710114 2.7659607 4.1730194 2.7659607 6.6776123l0 37.774277c0 5.2155457 -4.2280426 9.443573 -9.443573 9.443573l-55.664047 0l0 0c-5.2155304 0 -9.443573 -4.2280273 -9.443573 -9.443573z" fill-rule="evenodd"/><path stroke="#000000" stroke-width="1.0" stroke-linejoin="round" stroke-linecap="butt" d="m134.83727 148.55118l0 0c0 -5.2155304 4.2280426 -9.443573 9.443573 -9.443573l55.664047 0c2.504593 0 4.906601 0.99494934 6.6776123 2.7659607c1.7710114 1.7710114 2.7659607 4.1730194 2.7659607 6.6776123l0 37.774277c0 5.2155457 -4.2280426 9.443573 -9.443573 9.443573l-55.664047 0l0 0c-5.2155304 0 -9.443573 -4.2280273 -9.443573 -9.443573z" fill-rule="evenodd"/><path fill="#cfe2f3" d="m262.45932 73.49606l0 0c0 -5.215538 4.2280273 -9.443573 9.443573 -9.443573l55.664032 0c2.5046082 0 4.906616 0.99494934 6.6776123 2.7659607c1.7710266 1.7710114 2.7659607 4.1730194 2.7659607 6.6776123l0 37.774277c0 5.215538 -4.2280273 9.443573 -9.443573 9.443573l-55.664032 0l0 0c-5.2155457 0 -9.443573 -4.228035 -9.443573 -9.443573z" fill-rule="evenodd"/><path stroke="#000000" stroke-width="1.0" stroke-linejoin="round" stroke-linecap="butt" d="m262.45932 73.49606l0 0c0 -5.215538 4.2280273 -9.443573 9.443573 -9.443573l55.664032 0c2.5046082 0 4.906616 0.99494934 6.6776123 2.7659607c1.7710266 1.7710114 2.7659607 4.1730194 2.7659607 6.6776123l0 37.774277c0 5.215538 -4.2280273 9.443573 -9.443573 9.443573l-55.664032 0l0 0c-5.2155457 0 -9.443573 -4.228035 -9.443573 -9.443573z" fill-rule="evenodd"/><path fill="#cfe2f3" d="m33.795277 253.88715l0 0c0 -5.2155457 4.2280273 -9.443573 9.443569 -9.443573l55.66404 0c2.504593 0 4.906601 0.9949341 6.6776123 2.7659607c1.7710114 1.7710114 2.7659607 4.1730194 2.7659607 6.6776123l0 37.77426c0 5.2155457 -4.228035 9.443573 -9.443573 9.443573l-55.66404 0l0 0c-5.215542 0 -9.443569 -4.2280273 -9.443569 -9.443573z" fill-rule="evenodd"/><path stroke="#000000" stroke-width="1.0" stroke-linejoin="round" stroke-linecap="butt" d="m33.795277 253.88715l0 0c0 -5.2155457 4.2280273 -9.443573 9.443569 -9.443573l55.66404 0c2.504593 0 4.906601 0.9949341 6.6776123 2.7659607c1.7710114 1.7710114 2.7659607 4.1730194 2.7659607 6.6776123l0 37.77426c0 5.2155457 -4.228035 9.443573 -9.443573 9.443573l-55.66404 0l0 0c-5.215542 0 -9.443569 -4.2280273 -9.443569 -9.443573z" fill-rule="evenodd"/><path fill="#cfe2f3" d="m801.3123 131.37534l0 0c0 -5.2155457 4.2280273 -9.443581 9.4436035 -9.443581l55.664 0c2.5046387 0 4.906616 0.99494934 6.6776123 2.7659607c1.7710571 1.7710114 2.7659912 4.173027 2.7659912 6.67762l0 37.774277c0 5.2155304 -4.2280273 9.443558 -9.4436035 9.443558l-55.664 0l0 0c-5.215576 0 -9.4436035 -4.2280273 -9.4436035 -9.443558z" fill-rule="evenodd"/><path stroke="#000000" stroke-width="1.0" stroke-linejoin="round" stroke-linecap="butt" d="m801.3123 131.37534l0 0c0 -5.2155457 4.2280273 -9.443581 9.4436035 -9.443581l55.664 0c2.5046387 0 4.906616 0.99494934 6.6776123 2.7659607c1.7710571 1.7710114 2.7659912 4.173027 2.7659912 6.67762l0 37.774277c0 5.2155304 -4.2280273 9.443558 -9.4436035 9.443558l-55.664 0l0 0c-5.215576 0 -9.4436035 -4.2280273 -9.4436035 -9.443558z" fill-rule="evenodd"/><path fill="#ff00ff" d="m245.96326 389.06036l0 0c0 -45.33954 130.60593 -82.09448 291.71655 -82.09448l0 0c161.1106 0 291.7165 36.754944 291.7165 82.09448l0 0c0 45.33954 -130.6059 82.09448 -291.7165 82.09448l0 0c-161.11063 0 -291.71655 -36.754944 -291.71655 -82.09448z" fill-rule="evenodd"/><path stroke="#000000" stroke-width="1.0" stroke-linejoin="round" stroke-linecap="butt" d="m245.96326 389.06036l0 0c0 -45.33954 130.60593 -82.09448 291.71655 -82.09448l0 0c161.1106 0 291.7165 36.754944 291.7165 82.09448l0 0c0 45.33954 -130.6059 82.09448 -291.7165 82.09448l0 0c-161.11063 0 -291.71655 -36.754944 -291.71655 -82.09448z" fill-rule="evenodd"/><path fill="#000000" d="m396.117 392.701l3.15625 0.796875q-1.0 3.890625 -3.578125 5.9375q-2.578125 2.03125 -6.296875 2.03125q-3.859375 0 -6.28125 -1.5625q-2.40625 -1.578125 -3.671875 -4.546875q-1.265625 -2.984375 -1.265625 -6.40625q0 -3.71875 1.421875 -6.5q1.421875 -2.78125 4.046875 -4.21875q2.640625 -1.4375 5.796875 -1.4375q3.578125 0 6.015625 1.828125q2.453125 1.8125 3.40625 5.125l-3.109375 0.734375q-0.828125 -2.609375 -2.40625 -3.796875q-1.578125 -1.1875 -3.96875 -1.1875q-2.75 0 -4.609375 1.328125q-1.84375 1.3125 -2.59375 3.53125q-0.734375 2.21875 -0.734375 4.578125q0 3.046875 0.875 5.3125q0.890625 2.265625 2.765625 3.390625q1.875 1.125 4.046875 1.125q2.65625 0 4.484375 -1.53125q1.84375 -1.53125 2.5 -4.53125zm18.506012 2.796875l3.015625 0.375q-0.703125 2.65625 -2.640625 4.125q-1.9375 1.453125 -4.953125 1.453125q-3.796875 0 -6.015625 -2.328125q-2.21875 -2.34375 -2.21875 -6.5625q0 -4.359375 2.25 -6.765625q2.25 -2.40625 5.828125 -2.40625q3.46875 0 5.65625 2.359375q2.203125 2.359375 2.203125 6.640625q0 0.265625 -0.015625 0.78125l-12.890625 0q0.15625 2.84375 1.609375 4.359375q1.453125 1.515625 3.609375 1.515625q1.609375 0 2.75 -0.84375q1.140625 -0.84375 1.8125 -2.703125zm-9.625 -4.734375l9.65625 0q-0.203125 -2.1875 -1.109375 -3.28125q-1.40625 -1.6875 -3.625 -1.6875q-2.015625 0 -3.390625 1.359375q-1.375 1.34375 -1.53125 3.609375zm16.332397 10.296875l0 -17.28125l2.625 0l0 2.453125q1.90625 -2.84375 5.5 -2.84375q1.5625 0 2.875 0.5625q1.3125 0.5625 1.953125 1.46875q0.65625 0.90625 0.921875 2.171875q0.15625 0.8125 0.15625 2.84375l0 10.625l-2.921875 0l0 -10.515625q0 -1.78125 -0.34375 -2.671875q-0.34375 -0.890625 -1.21875 -1.421875q-0.859375 -0.53125 -2.03125 -0.53125q-1.875 0 -3.234375 1.1875q-1.359375 1.1875 -1.359375 4.515625l0 9.4375l-2.921875 0zm24.926147 -2.625l0.421875 2.59375q-1.234375 0.265625 -2.21875 0.265625q-1.59375 0 -2.46875 -0.5q-0.875 -0.515625 -1.234375 -1.328125q-0.359375 -0.828125 -0.359375 -3.46875l0 -9.9375l-2.15625 0l0 -2.28125l2.15625 0l0 -4.28125l2.90625 -1.75l0 6.03125l2.953125 0l0 2.28125l-2.953125 0l0 10.109375q0 1.25 0.15625 1.609375q0.15625 0.359375 0.5 0.578125q0.359375 0.203125 1.015625 0.203125q0.484375 0 1.28125 -0.125zm2.8377686 2.625l0 -17.28125l2.625 0l0 2.625q1.015625 -1.84375 1.859375 -2.421875q0.859375 -0.59375 1.890625 -0.59375q1.484375 0 3.0 0.9375l-1.0 2.71875q-1.078125 -0.625 -2.15625 -0.625q-0.953125 0 -1.71875 0.578125q-0.765625 0.578125 -1.09375 1.59375q-0.484375 1.5625 -0.484375 3.421875l0 9.046875l-2.921875 0zm22.395386 -2.125q-1.625 1.375 -3.125 1.953125q-1.5 0.5625 -3.234375 0.5625q-2.84375 0 -4.375 -1.390625q-1.53125 -1.390625 -1.53125 -3.5625q0 -1.265625 0.578125 -2.3125q0.578125 -1.046875 1.515625 -1.671875q0.9375 -0.640625 2.109375 -0.96875q0.859375 -0.234375 2.59375 -0.4375q3.546875 -0.421875 5.234375 -1.015625q0.015625 -0.609375 0.015625 -0.765625q0 -1.78125 -0.828125 -2.515625q-1.125 -1.0 -3.34375 -1.0q-2.0625 0 -3.046875 0.734375q-0.984375 0.71875 -1.453125 2.546875l-2.875 -0.390625q0.390625 -1.828125 1.28125 -2.953125q0.90625 -1.140625 2.59375 -1.75q1.703125 -0.609375 3.921875 -0.609375q2.21875 0 3.59375 0.53125q1.390625 0.515625 2.03125 1.3125q0.65625 0.78125 0.921875 1.984375q0.140625 0.75 0.140625 2.703125l0 3.90625q0 4.078125 0.1875 5.15625q0.1875 1.078125 0.75 2.078125l-3.0625 0q-0.453125 -0.90625 -0.59375 -2.125zm-0.234375 -6.546875q-1.59375 0.65625 -4.78125 1.109375q-1.8125 0.25 -2.5625 0.578125q-0.75 0.328125 -1.15625 0.953125q-0.40625 0.625 -0.40625 1.390625q0 1.171875 0.890625 1.953125q0.890625 0.78125 2.59375 0.78125q1.6875 0 3.0 -0.734375q1.328125 -0.75 1.953125 -2.03125q0.46875 -0.984375 0.46875 -2.921875l0 -1.078125zm7.4261475 8.671875l0 -23.859375l2.9375 0l0 23.859375l-2.9375 0zm7.4981995 -20.484375l0 -3.375l2.921875 0l0 3.375l-2.921875 0zm0 20.484375l0 -17.28125l2.921875 0l0 17.28125l-2.921875 0zm5.8419495 0l0 -2.375l11.0 -12.625q-1.875 0.09375 -3.3125 0.09375l-7.046875 0l0 -2.375l14.125 0l0 1.9375l-9.359375 10.96875l-1.796875 2.0q1.96875 -0.140625 3.6875 -0.140625l8.0 0l0 2.515625l-15.296875 0zm30.039093 -5.5625l3.015625 0.375q-0.703125 2.65625 -2.640625 4.125q-1.9375 1.453125 -4.953125 1.453125q-3.796875 0 -6.0156555 -2.328125q-2.21875 -2.34375 -2.21875 -6.5625q0 -4.359375 2.25 -6.765625q2.2500305 -2.40625 5.8281555 -2.40625q3.46875 0 5.65625 2.359375q2.203125 2.359375 2.203125 6.640625q0 0.265625 -0.015625 0.78125l-12.890625 0q0.15625 2.84375 1.609375 4.359375q1.453125 1.515625 3.609375 1.515625q1.609375 0 2.75 -0.84375q1.140625 -0.84375 1.8125 -2.703125zm-9.625 -4.734375l9.65625 0q-0.203125 -2.1875 -1.109375 -3.28125q-1.40625 -1.6875 -3.625 -1.6875q-2.015625 0 -3.390625 1.359375q-1.375 1.34375 -1.53125 3.609375zm27.535522 10.296875l0 -2.1875q-1.640625 2.578125 -4.828125 2.578125q-2.0625 0 -3.796875 -1.140625q-1.734375 -1.140625 -2.6875 -3.171875q-0.953125 -2.046875 -0.953125 -4.703125q0 -2.59375 0.859375 -4.6875q0.859375 -2.109375 2.578125 -3.234375q1.734375 -1.125 3.875 -1.125q1.5625 0 2.78125 0.65625q1.21875 0.65625 1.984375 1.71875l0 -8.5625l2.90625 0l0 23.859375l-2.71875 0zm-9.25 -8.625q0 3.3125 1.390625 4.96875q1.40625 1.640625 3.3125 1.640625q1.90625 0 3.25 -1.5625q1.34375 -1.578125 1.34375 -4.796875q0 -3.546875 -1.375 -5.203125q-1.359375 -1.671875 -3.359375 -1.671875q-1.953125 0 -3.265625 1.59375q-1.296875 1.59375 -1.296875 5.03125zm43.232605 0.265625l3.15625 0.796875q-1.0 3.890625 -3.578125 5.9375q-2.578125 2.03125 -6.296875 2.03125q-3.859375 0 -6.28125 -1.5625q-2.40625 -1.578125 -3.671875 -4.546875q-1.265625 -2.984375 -1.265625 -6.40625q0 -3.71875 1.421875 -6.5q1.421875 -2.78125 4.046875 -4.21875q2.640625 -1.4375 5.796875 -1.4375q3.578125 0 6.015625 1.828125q2.453125 1.8125 3.40625 5.125l-3.109375 0.734375q-0.828125 -2.609375 -2.40625 -3.796875q-1.578125 -1.1875 -3.96875 -1.1875q-2.75 0 -4.609375 1.328125q-1.84375 1.3125 -2.59375 3.53125q-0.734375 2.21875 -0.734375 4.578125q0 3.046875 0.875 5.3125q0.890625 2.265625 2.765625 3.390625q1.875 1.125 4.046875 1.125q2.65625 0 4.484375 -1.53125q1.84375 -1.53125 2.5 -4.53125zm5.5841675 -0.28125q0 -4.796875 2.671875 -7.109375q2.21875 -1.921875 5.421875 -1.921875q3.578125 0 5.828125 2.34375q2.265625 2.328125 2.265625 6.4375q0 3.34375 -1.0 5.265625q-1.0 1.90625 -2.921875 2.96875q-1.90625 1.046875 -4.171875 1.046875q-3.625 0 -5.859375 -2.328125q-2.234375 -2.328125 -2.234375 -6.703125zm3.015625 0q0 3.3125 1.4375 4.96875q1.453125 1.65625 3.640625 1.65625q2.1875 0 3.625 -1.65625q1.453125 -1.671875 1.453125 -5.0625q0 -3.203125 -1.453125 -4.859375q-1.453125 -1.65625 -3.625 -1.65625q-2.1875 0 -3.640625 1.640625q-1.4375 1.640625 -1.4375 4.96875zm16.613647 8.640625l0 -17.28125l2.625 0l0 2.453125q1.90625 -2.84375 5.5 -2.84375q1.5625 0 2.875 0.5625q1.3125 0.5625 1.953125 1.46875q0.65625 0.90625 0.921875 2.171875q0.15625 0.8125 0.15625 2.84375l0 10.625l-2.921875 0l0 -10.515625q0 -1.78125 -0.34375 -2.671875q-0.34375 -0.890625 -1.21875 -1.421875q-0.859375 -0.53125 -2.03125 -0.53125q-1.875 0 -3.234375 1.1875q-1.359375 1.1875 -1.359375 4.515625l0 9.4375l-2.921875 0zm24.926147 -2.625l0.421875 2.59375q-1.234375 0.265625 -2.21875 0.265625q-1.59375 0 -2.46875 -0.5q-0.875 -0.515625 -1.234375 -1.328125q-0.359375 -0.828125 -0.359375 -3.46875l0 -9.9375l-2.15625 0l0 -2.28125l2.15625 0l0 -4.28125l2.90625 -1.75l0 6.03125l2.953125 0l0 2.28125l-2.953125 0l0 10.109375q0 1.25 0.15625 1.609375q0.15625 0.359375 0.5 0.578125q0.359375 0.203125 1.015625 0.203125q0.484375 0 1.28125 -0.125zm2.8377075 2.625l0 -17.28125l2.625 0l0 2.625q1.015625 -1.84375 1.859375 -2.421875q0.859375 -0.59375 1.890625 -0.59375q1.484375 0 3.0 0.9375l-1.0 2.71875q-1.078125 -0.625 -2.15625 -0.625q-0.953125 0 -1.71875 0.578125q-0.765625 0.578125 -1.09375 1.59375q-0.484375 1.5625 -0.484375 3.421875l0 9.046875l-2.921875 0zm10.036072 -8.640625q0 -4.796875 2.671875 -7.109375q2.21875 -1.921875 5.421875 -1.921875q3.578125 0 5.828125 2.34375q2.265625 2.328125 2.265625 6.4375q0 3.34375 -1.0 5.265625q-1.0 1.90625 -2.921875 2.96875q-1.90625 1.046875 -4.171875 1.046875q-3.625 0 -5.859375 -2.328125q-2.234375 -2.328125 -2.234375 -6.703125zm3.015625 0q0 3.3125 1.4375 4.96875q1.453125 1.65625 3.640625 1.65625q2.1875 0 3.625 -1.65625q1.453125 -1.671875 1.453125 -5.0625q0 -3.203125 -1.453125 -4.859375q-1.453125 -1.65625 -3.625 -1.65625q-2.1875 0 -3.640625 1.640625q-1.4375 1.640625 -1.4375 4.96875zm16.535522 8.640625l0 -23.859375l2.9375 0l0 23.859375l-2.9375 0zm7.404419 0l0 -23.859375l2.9375 0l0 23.859375l-2.9375 0zm19.31073 -5.5625l3.015625 0.375q-0.703125 2.65625 -2.640625 4.125q-1.9375 1.453125 -4.953125 1.453125q-3.796875 0 -6.015625 -2.328125q-2.21875 -2.34375 -2.21875 -6.5625q0 -4.359375 2.25 -6.765625q2.25 -2.40625 5.828125 -2.40625q3.46875 0 5.65625 2.359375q2.203125 2.359375 2.203125 6.640625q0 0.265625 -0.015625 0.78125l-12.890625 0q0.15625 2.84375 1.609375 4.359375q1.453125 1.515625 3.609375 1.515625q1.609375 0 2.75 -0.84375q1.140625 -0.84375 1.8125 -2.703125zm-9.625 -4.734375l9.65625 0q-0.203125 -2.1875 -1.109375 -3.28125q-1.40625 -1.6875 -3.625 -1.6875q-2.015625 0 -3.390625 1.359375q-1.375 1.34375 -1.53125 3.609375zm16.301147 10.296875l0 -17.28125l2.625 0l0 2.625q1.015625 -1.84375 1.859375 -2.421875q0.859375 -0.59375 1.890625 -0.59375q1.484375 0 3.0 0.9375l-1.0 2.71875q-1.078125 -0.625 -2.15625 -0.625q-0.953125 0 -1.71875 0.578125q-0.765625 0.578125 -1.09375 1.59375q-0.484375 1.5625 -0.484375 3.421875l0 9.046875l-2.921875 0z" fill-rule="nonzero"/><path fill="#000000" fill-opacity="0.0" d="m65.25459 120.71391l0 93.1268l266.14172 0l0 117.17241" fill-rule="evenodd"/><path stroke="#000000" stroke-width="1.0" stroke-linejoin="round" stroke-linecap="butt" d="m65.25459 120.71391l0 93.1268l266.14172 0l0 113.745316" fill-rule="evenodd"/><path fill="#000000" stroke="#000000" stroke-width="1.0" stroke-linecap="butt" d="m331.39633 327.58603l-1.1246033 -1.1245728l1.1246033 3.0897522l1.1245728 -3.0897522z" fill-rule="evenodd"/><path fill="#000000" fill-opacity="0.0" d="m108.35696 272.77692l68.803154 0l0 116.28345l68.80315 0" fill-rule="evenodd"/><path stroke="#000000" stroke-width="1.0" stroke-linejoin="round" stroke-linecap="butt" d="m108.35696 272.77692l68.803154 0l0 116.28345l65.37607 0" fill-rule="evenodd"/><path fill="#000000" stroke="#000000" stroke-width="1.0" stroke-linecap="butt" d="m242.53616 389.06036l-1.1245728 1.1245728l3.0897675 -1.1245728l-3.0897675 -1.1245728z" fill-rule="evenodd"/><path fill="#000000" fill-opacity="0.0" d="m172.11285 195.76903l0 55.598846l159.3071 0l0 79.64525" fill-rule="evenodd"/><path stroke="#000000" stroke-width="1.0" stroke-linejoin="round" stroke-linecap="butt" d="m172.11285 195.76903l0 55.59886l159.3071 0l0 76.21814" fill-rule="evenodd"/><path fill="#000000" stroke="#000000" stroke-width="1.0" stroke-linecap="butt" d="m331.41995 327.58603l-1.1246033 -1.1245728l1.1246033 3.0897522l1.1245728 -3.0897522z" fill-rule="evenodd"/><path fill="#000000" fill-opacity="0.0" d="m299.7349 120.71391l0 93.12695l-78.771454 0l0 175.2195l25.00769 0" fill-rule="evenodd"/><path stroke="#000000" stroke-width="1.0" stroke-linejoin="round" stroke-linecap="butt" d="m299.7349 120.71391l0 93.12695l-78.771454 0l0 175.2195l21.580612 0" fill-rule="evenodd"/><path fill="#000000" stroke="#000000" stroke-width="1.0" stroke-linecap="butt" d="m242.54404 389.06036l-1.1245728 1.1245728l3.0897675 -1.1245728l-3.0897675 -1.1245728z" fill-rule="evenodd"/><path fill="#000000" fill-opacity="0.0" d="m537.6798 306.96588c0 -23.84552 -25.741913 -34.06546 -49.829376 -47.69107c-24.087433 -13.62558 -46.520477 -30.656845 -49.829315 -54.500916c-3.3088684 -23.84407 12.5065 -54.50093 25.013 -54.50093" fill-rule="evenodd"/><path stroke="#000000" stroke-width="1.0" stroke-linejoin="round" stroke-linecap="butt" d="m537.6798 306.96588c0 -23.84555 -25.741913 -34.06546 -49.829376 -47.69104c-24.087433 -13.625626 -46.520508 -30.656876 -49.829315 -54.500946c-1.6543884 -11.922028 1.4721985 -25.547272 6.5757446 -36.191986c2.5517578 -5.322357 5.5977783 -9.899597 8.787476 -13.14624c1.5948792 -1.6233215 3.225647 -2.9140015 4.848572 -3.7988434c0.40570068 -0.22122192 0.8109436 -0.41705322 1.2149963 -0.5864105l0.22836304 -0.0920105" fill-rule="evenodd"/><path fill="#000000" stroke="#000000" stroke-width="1.0" stroke-linecap="butt" d="m459.67627 150.9584l-0.8769226 1.3267822l2.8023987 -1.7198334l-3.2522583 -0.48388672z" fill-rule="evenodd"/><path fill="#000000" fill-opacity="0.0" d="m610.64307 150.26247c12.500122 0 28.198608 30.659424 25.000244 54.50641c-3.1984253 23.847 -25.293762 40.881546 -48.988342 54.506424c-23.694519 13.624847 -48.98828 23.840027 -48.98828 47.680084" fill-rule="evenodd"/><path stroke="#000000" stroke-width="1.0" stroke-linejoin="round" stroke-linecap="butt" d="m610.64307 150.26247c12.500122 0 28.198608 30.659424 25.000244 54.506424c-3.1984253 23.846985 -25.293762 40.88153 -48.988342 54.50641c-11.84729 6.8124084 -24.09436 12.77243 -33.37964 20.009369c-4.642578 3.6184387 -8.544739 7.556122 -11.286255 12.079163c-1.3707886 2.2615662 -2.451416 4.6694336 -3.18927 7.2569275c-0.36901855 1.2937622 -0.6522217 2.6323853 -0.8432617 4.020111c-0.023925781 0.17346191 -0.046325684 0.3477173 -0.06738281 0.5227356l-0.04095459 0.36947632" fill-rule="evenodd"/><path fill="#000000" stroke="#000000" stroke-width="1.0" stroke-linecap="butt" d="m537.84814 303.5331l-1.0634155 -1.1825562l0.9593506 3.144989l1.2866211 -3.025879z" fill-rule="evenodd"/><path fill="#000000" fill-opacity="0.0" d="m743.9545 331.0108l0 -180.7559l57.35431 0" fill-rule="evenodd"/><path stroke="#000000" stroke-width="1.0" stroke-linejoin="round" stroke-linecap="butt" d="m743.9546 331.0108l0 -180.7559l53.927246 0" fill-rule="evenodd"/><path fill="#000000" stroke="#000000" stroke-width="1.0" stroke-linecap="butt" d="m797.8818 150.2549l-1.1245728 1.1245728l3.0897827 -1.1245728l-3.0897827 -1.124588z" fill-rule="evenodd"/></g></svg>