<svg version="1.1" viewBox="0.0 0.0 1073.6640419947507 487.38320209973756" fill="none" stroke="none" stroke-linecap="square" stroke-miterlimit="10" xmlns:xlink="http://www.w3.org/1999/xlink" xmlns="http://www.w3.org/2000/svg"><clipPath id="p.0"><path d="m0 0l1073.6641 0l0 487.3832l-1073.6641 0l0 -487.3832z" clip-rule="nonzero"/></clipPath><g clip-path="url(#p.0)"><path fill="#000000" fill-opacity="0.0" d="m0 0l1073.6641 0l0 487.3832l-1073.6641 0z" fill-rule="evenodd"/><path fill="#cfe2f3" d="m41.225723 220.66405l0 0c0 -7.500061 6.079994 -13.580063 13.580051 -13.580063l68.71391 0c3.601654 0 7.0558014 1.4307556 9.602554 3.9775085c2.546753 2.546753 3.9774933 6.0009003 3.9774933 9.602554l0 54.320206c0 7.500061 -6.0799866 13.580048 -13.580048 13.580048l-68.71391 0l0 0c-7.500057 0 -13.580051 -6.0799866 -13.580051 -13.580048z" fill-rule="evenodd"/><path stroke="#000000" stroke-width="1.0" stroke-linejoin="round" stroke-linecap="butt" d="m41.225723 220.66405l0 0c0 -7.500061 6.079994 -13.580063 13.580051 -13.580063l68.71391 0c3.601654 0 7.0558014 1.4307556 9.602554 3.9775085c2.546753 2.546753 3.9774933 6.0009003 3.9774933 9.602554l0 54.320206c0 7.500061 -6.0799866 13.580048 -13.580048 13.580048l-68.71391 0l0 0c-7.500057 0 -13.580051 -6.0799866 -13.580051 -13.580048z" fill-rule="evenodd"/><path fill="#cfe2f3" d="m222.7874 220.66405l0 0c0 -7.500061 6.080002 -13.580063 13.580048 -13.580063l68.71391 0c3.601654 0 7.055786 1.4307556 9.602539 3.9775085c2.546753 2.546753 3.9775085 6.0009003 3.9775085 9.602554l0 54.320206c0 7.500061 -6.0799866 13.580048 -13.580048 13.580048l-68.71391 0l0 0c-7.500046 0 -13.580048 -6.0799866 -13.580048 -13.580048z" fill-rule="evenodd"/><path stroke="#000000" stroke-width="1.0" stroke-linejoin="round" stroke-linecap="butt" d="m222.7874 220.66405l0 0c0 -7.500061 6.080002 -13.580063 13.580048 -13.580063l68.71391 0c3.601654 0 7.055786 1.4307556 9.602539 3.9775085c2.546753 2.546753 3.9775085 6.0009003 3.9775085 9.602554l0 54.320206c0 7.500061 -6.0799866 13.580048 -13.580048 13.580048l-68.71391 0l0 0c-7.500046 0 -13.580048 -6.0799866 -13.580048 -13.580048z" fill-rule="evenodd"/><path fill="#cfe2f3" d="m442.42783 33.72441l0 0c0 -7.500057 6.0799866 -13.580053 13.580048 -13.580053l68.71393 0c3.6016235 0 7.055786 1.4307499 9.602539 3.9775047c2.546753 2.546753 3.977478 6.0008926 3.977478 9.602549l0 54.320206c0 7.500061 -6.079956 13.580055 -13.580017 13.580055l-68.71393 0l0 0c-7.500061 0 -13.580048 -6.079994 -13.580048 -13.580055z" fill-rule="evenodd"/><path stroke="#000000" stroke-width="1.0" stroke-linejoin="round" stroke-linecap="butt" d="m442.42783 33.72441l0 0c0 -7.500057 6.0799866 -13.580053 13.580048 -13.580053l68.71393 0c3.6016235 0 7.055786 1.4307499 9.602539 3.9775047c2.546753 2.546753 3.977478 6.0008926 3.977478 9.602549l0 54.320206c0 7.500061 -6.079956 13.580055 -13.580017 13.580055l-68.71393 0l0 0c-7.500061 0 -13.580048 -6.079994 -13.580048 -13.580055z" fill-rule="evenodd"/><path fill="#cfe2f3" d="m442.42783 153.61679l0 0c0 -7.500046 6.0799866 -13.580048 13.580048 -13.580048l68.71393 0c3.6016235 0 7.055786 1.4307556 9.602539 3.9775085c2.546753 2.546753 3.977478 6.000885 3.977478 9.602539l0 54.32022c0 7.500046 -6.079956 13.580048 -13.580017 13.580048l-68.71393 0l0 0c-7.500061 0 -13.580048 -6.080002 -13.580048 -13.580048z" fill-rule="evenodd"/><path stroke="#000000" stroke-width="1.0" stroke-linejoin="round" stroke-linecap="butt" d="m442.42783 153.61679l0 0c0 -7.500046 6.0799866 -13.580048 13.580048 -13.580048l68.71393 0c3.6016235 0 7.055786 1.4307556 9.602539 3.9775085c2.546753 2.546753 3.977478 6.000885 3.977478 9.602539l0 54.32022c0 7.500046 -6.079956 13.580048 -13.580017 13.580048l-68.71393 0l0 0c-7.500061 0 -13.580048 -6.080002 -13.580048 -13.580048z" fill-rule="evenodd"/><path fill="#cfe2f3" d="m442.42783 273.5092l0 0c0 -7.500061 6.0799866 -13.580048 13.580048 -13.580048l68.71393 0c3.6016235 0 7.055786 1.4307556 9.602539 3.9775085c2.546753 2.546753 3.977478 6.000885 3.977478 9.602539l0 54.32022c0 7.5000305 -6.079956 13.580048 -13.580017 13.580048l-68.71393 0l0 0c-7.500061 0 -13.580048 -6.080017 -13.580048 -13.580048z" fill-rule="evenodd"/><path stroke="#000000" stroke-width="1.0" stroke-linejoin="round" stroke-linecap="butt" d="m442.42783 273.5092l0 0c0 -7.500061 6.0799866 -13.580048 13.580048 -13.580048l68.71393 0c3.6016235 0 7.055786 1.4307556 9.602539 3.9775085c2.546753 2.546753 3.977478 6.000885 3.977478 9.602539l0 54.32022c0 7.5000305 -6.079956 13.580048 -13.580017 13.580048l-68.71393 0l0 0c-7.500061 0 -13.580048 -6.080017 -13.580048 -13.580048z" fill-rule="evenodd"/><path fill="#cfe2f3" d="m442.42783 393.40158l0 0c0 -7.500061 6.0799866 -13.580048 13.580048 -13.580048l68.71393 0c3.6016235 0 7.055786 1.4307556 9.602539 3.9775085c2.546753 2.546753 3.977478 6.000885 3.977478 9.602539l0 54.32019c0 7.500061 -6.079956 13.580078 -13.580017 13.580078l-68.71393 0l0 0c-7.500061 0 -13.580048 -6.080017 -13.580048 -13.580078z" fill-rule="evenodd"/><path stroke="#000000" stroke-width="1.0" stroke-linejoin="round" stroke-linecap="butt" d="m442.42783 393.40158l0 0c0 -7.500061 6.0799866 -13.580048 13.580048 -13.580048l68.71393 0c3.6016235 0 7.055786 1.4307556 9.602539 3.9775085c2.546753 2.546753 3.977478 6.000885 3.977478 9.602539l0 54.32019c0 7.500061 -6.079956 13.580078 -13.580017 13.580078l-68.71393 0l0 0c-7.500061 0 -13.580048 -6.080017 -13.580048 -13.580078z" fill-rule="evenodd"/><path fill="#cfe2f3" d="m937.3412 216.53018l0 0c0 -7.500061 6.080017 -13.580048 13.580078 -13.580048l68.71393 0c3.6016235 0 7.055725 1.4307556 9.602478 3.9775085c2.546753 2.546753 3.977539 6.000885 3.977539 9.602539l0 54.32022c0 7.500061 -6.079956 13.580048 -13.580017 13.580048l-68.71393 0l0 0c-7.500061 0 -13.580078 -6.0799866 -13.580078 -13.580048z" fill-rule="evenodd"/><path stroke="#000000" stroke-width="1.0" stroke-linejoin="round" stroke-linecap="butt" d="m937.3412 216.53018l0 0c0 -7.500061 6.080017 -13.580048 13.580078 -13.580048l68.71393 0c3.6016235 0 7.055725 1.4307556 9.602478 3.9775085c2.546753 2.546753 3.977539 6.000885 3.977539 9.602539l0 54.32022c0 7.500061 -6.079956 13.580048 -13.580017 13.580048l-68.71393 0l0 0c-7.500061 0 -13.580078 -6.0799866 -13.580078 -13.580048z" fill-rule="evenodd"/><path fill="#000000" fill-opacity="0.0" d="m165.0 247.82414l57.795273 0" fill-rule="evenodd"/><path stroke="#000000" stroke-width="2.0" stroke-linejoin="round" stroke-linecap="butt" d="m165.0 247.82414l50.941116 0" fill-rule="evenodd"/><path fill="#000000" stroke="#000000" stroke-width="2.0" stroke-linecap="butt" d="m215.9411 247.82414l-2.2491608 2.249176l6.179535 -2.249176l-6.179535 -2.2491608z" fill-rule="evenodd"/><path fill="#000000" fill-opacity="0.0" d="m337.16797 238.09186l105.25986 -177.19684" fill-rule="evenodd"/><path stroke="#000000" stroke-width="2.0" stroke-linejoin="round" stroke-linecap="butt" d="m337.16797 238.09186l101.75931 -171.30397" fill-rule="evenodd"/><path fill="#000000" stroke="#000000" stroke-width="2.0" stroke-linecap="butt" d="m438.92728 66.78789l0.7850647 3.082405l1.2222595 -6.46154l-5.0897217 4.1641693z" fill-rule="evenodd"/><path fill="#000000" fill-opacity="0.0" d="m344.04974 240.94238l98.39371 -60.157486" fill-rule="evenodd"/><path stroke="#000000" stroke-width="2.0" stroke-linejoin="round" stroke-linecap="butt" d="m344.04974 240.94238l92.5459 -56.58217" fill-rule="evenodd"/><path fill="#000000" stroke="#000000" stroke-width="2.0" stroke-linecap="butt" d="m436.59564 184.36021l-0.745697 3.092163l4.098999 -5.1423492l-6.445465 1.3044891z" fill-rule="evenodd"/><path fill="#000000" fill-opacity="0.0" d="m344.04974 254.70592l98.39371 45.952744" fill-rule="evenodd"/><path stroke="#000000" stroke-width="2.0" stroke-linejoin="round" stroke-linecap="butt" d="m344.04974 254.70592l92.18344 43.052353" fill-rule="evenodd"/><path fill="#000000" stroke="#000000" stroke-width="2.0" stroke-linecap="butt" d="m436.2332 297.7583l-2.989624 1.0861206l6.5507507 0.57702637l-4.647278 -4.652771z" fill-rule="evenodd"/><path fill="#000000" fill-opacity="0.0" d="m337.16797 257.55643l105.25986 162.99213" fill-rule="evenodd"/><path stroke="#000000" stroke-width="2.0" stroke-linejoin="round" stroke-linecap="butt" d="m337.16797 257.55643l101.54144 157.23425" fill-rule="evenodd"/><path fill="#000000" stroke="#000000" stroke-width="2.0" stroke-linecap="butt" d="m438.7094 414.79068l-3.1096191 -0.66922l5.241852 3.9709473l-1.4630127 -6.411316z" fill-rule="evenodd"/><path fill="#000000" fill-opacity="0.0" d="m561.56946 293.78754l115.71649 -24.126007" fill-rule="evenodd"/><path stroke="#000000" stroke-width="2.0" stroke-linejoin="round" stroke-linecap="butt" d="m561.56946 293.78754l109.00659 -22.72705" fill-rule="evenodd"/><path fill="#000000" stroke="#000000" stroke-width="2.0" stroke-linecap="butt" d="m670.57605 271.0605l-1.7427368 2.6608887l5.590393 -3.4630737l-6.508484 -0.94055176z" fill-rule="evenodd"/><path fill="#000000" fill-opacity="0.0" d="m561.56946 307.55106l115.71649 82.01575" fill-rule="evenodd"/><path stroke="#000000" stroke-width="2.0" stroke-linejoin="round" stroke-linecap="butt" d="m561.56946 307.55106l110.12445 78.05234" fill-rule="evenodd"/><path fill="#000000" stroke="#000000" stroke-width="2.0" stroke-linecap="butt" d="m671.6939 385.60336l-3.135559 0.5344238l6.342224 1.7383118l-3.7410889 -5.408325z" fill-rule="evenodd"/><path fill="#000000" fill-opacity="0.0" d="m564.4199 60.884514l348.252 173.07086" fill-rule="evenodd"/><path stroke="#000000" stroke-width="2.0" stroke-linejoin="round" stroke-linecap="butt" d="m564.4199 60.884514l342.114 170.02048" fill-rule="evenodd"/><path fill="#000000" stroke="#000000" stroke-width="2.0" stroke-linecap="butt" d="m906.53394 230.90498l-3.0151367 1.0131836l6.534851 0.73599243l-4.532898 -4.7642975z" fill-rule="evenodd"/><path fill="#000000" fill-opacity="0.0" d="m564.4199 180.7769l341.35437 56.031494" fill-rule="evenodd"/><path stroke="#000000" stroke-width="2.0" stroke-linejoin="round" stroke-linecap="butt" d="m564.4199 180.7769l334.59064 54.92128" fill-rule="evenodd"/><path fill="#000000" stroke="#000000" stroke-width="2.0" stroke-linecap="butt" d="m899.0106 235.69818l-2.5838013 1.8551483l6.4622803 -1.2185211l-5.7336426 -3.2204132z" fill-rule="evenodd"/><path fill="#000000" fill-opacity="0.0" d="m798.8268 269.6614l104.09448 -25.984238" fill-rule="evenodd"/><path stroke="#000000" stroke-width="2.0" stroke-linejoin="round" stroke-linecap="butt" d="m798.8268 269.6614l97.4444 -24.324219" fill-rule="evenodd"/><path fill="#000000" stroke="#000000" stroke-width="2.0" stroke-linecap="butt" d="m896.2711 245.33717l-1.6374512 2.726944l5.4508057 -3.678833l-6.540283 -0.68559265z" fill-rule="evenodd"/><path fill="#000000" fill-opacity="0.0" d="m795.97626 382.67203l116.69293 -129.25983" fill-rule="evenodd"/><path stroke="#000000" stroke-width="2.0" stroke-linejoin="round" stroke-linecap="butt" d="m795.9762 382.67203l112.099915 -124.17218" fill-rule="evenodd"/><path fill="#000000" stroke="#000000" stroke-width="2.0" stroke-linecap="butt" d="m908.0761 258.49982l0.16235352 3.1766663l2.4714355 -6.09404l-5.810425 3.0796967z" fill-rule="evenodd"/><path fill="#000000" fill-opacity="0.0" d="m561.56946 413.6799l344.22046 -163.11809" fill-rule="evenodd"/><path stroke="#000000" stroke-width="2.0" stroke-linejoin="round" stroke-linecap="butt" d="m561.56946 413.6799l338.0265 -160.18294" fill-rule="evenodd"/><path fill="#000000" stroke="#000000" stroke-width="2.0" stroke-linecap="butt" d="m899.59595 253.49695l-1.0693359 2.9956665l4.6210938 -4.6787567l-6.5474243 0.6137543z" fill-rule="evenodd"/><path fill="#cfe2f3" d="m677.29395 242.50131l0 0c0 -7.500061 6.080017 -13.580048 13.580078 -13.580048l68.71393 0c3.6016235 0 7.055786 1.4307404 9.602539 3.9774933c2.546753 2.5467682 3.977478 6.0009003 3.977478 9.602554l0 54.32022c0 7.5000305 -6.079956 13.580048 -13.580017 13.580048l-68.71393 0l0 0c-7.500061 0 -13.580078 -6.080017 -13.580078 -13.580048z" fill-rule="evenodd"/><path stroke="#000000" stroke-width="1.0" stroke-linejoin="round" stroke-linecap="butt" d="m677.29395 242.50131l0 0c0 -7.500061 6.080017 -13.580048 13.580078 -13.580048l68.71393 0c3.6016235 0 7.055786 1.4307404 9.602539 3.9774933c2.546753 2.5467682 3.977478 6.0009003 3.977478 9.602554l0 54.32022c0 7.5000305 -6.079956 13.580048 -13.580017 13.580048l-68.71393 0l0 0c-7.500061 0 -13.580078 -6.080017 -13.580078 -13.580048z" fill-rule="evenodd"/><path fill="#cfe2f3" d="m677.29395 362.3937l0 0c0 -7.500061 6.080017 -13.580048 13.580078 -13.580048l68.71393 0c3.6016235 0 7.055786 1.4307251 9.602539 3.9775085c2.546753 2.546753 3.977478 6.000885 3.977478 9.602539l0 54.32019c0 7.500061 -6.079956 13.580078 -13.580017 13.580078l-68.71393 0l0 0c-7.500061 0 -13.580078 -6.080017 -13.580078 -13.580078z" fill-rule="evenodd"/><path stroke="#000000" stroke-width="1.0" stroke-linejoin="round" stroke-linecap="butt" d="m677.29395 362.3937l0 0c0 -7.500061 6.080017 -13.580048 13.580078 -13.580048l68.71393 0c3.6016235 0 7.055786 1.4307251 9.602539 3.9775085c2.546753 2.546753 3.977478 6.000885 3.977478 9.602539l0 54.32019c0 7.500061 -6.079956 13.580078 -13.580017 13.580078l-68.71393 0l0 0c-7.500061 0 -13.580078 -6.080017 -13.580078 -13.580078z" fill-rule="evenodd"/><path fill="#ff00ff" d="m145.53543 247.82414l0 0c0 -5.3749847 4.3573 -9.732285 9.732285 -9.732285l0 0c2.5811615 0 5.05661 1.0253754 6.8817596 2.850525c1.8251648 1.8251648 2.850525 4.300598 2.850525 6.8817596l0 0c0 5.375 -4.3572845 9.732285 -9.732285 9.732285l0 0c-5.3749847 0 -9.732285 -4.3572845 -9.732285 -9.732285z" fill-rule="evenodd"/><path stroke="#000000" stroke-width="1.0" stroke-linejoin="round" stroke-linecap="butt" d="m145.53543 247.82414l0 0c0 -5.3749847 4.3573 -9.732285 9.732285 -9.732285l0 0c2.5811615 0 5.05661 1.0253754 6.8817596 2.850525c1.8251648 1.8251648 2.850525 4.300598 2.850525 6.8817596l0 0c0 5.375 -4.3572845 9.732285 -9.732285 9.732285l0 0c-5.3749847 0 -9.732285 -4.3572845 -9.732285 -9.732285z" fill-rule="evenodd"/><path fill="#ff00ff" d="m327.4357 247.82414l0 0c0 -5.3749847 4.3573 -9.732285 9.732269 -9.732285l0 0c2.5811768 0 5.05661 1.0253754 6.881775 2.850525c1.8251648 1.8251648 2.850525 4.300598 2.850525 6.8817596l0 0c0 5.375 -4.3573 9.732285 -9.7323 9.732285l0 0c-5.3749695 0 -9.732269 -4.3572845 -9.732269 -9.732285z" fill-rule="evenodd"/><path stroke="#000000" stroke-width="1.0" stroke-linejoin="round" stroke-linecap="butt" d="m327.4357 247.82414l0 0c0 -5.3749847 4.3573 -9.732285 9.732269 -9.732285l0 0c2.5811768 0 5.05661 1.0253754 6.881775 2.850525c1.8251648 1.8251648 2.850525 4.300598 2.850525 6.8817596l0 0c0 5.375 -4.3573 9.732285 -9.7323 9.732285l0 0c-5.3749695 0 -9.732269 -4.3572845 -9.732269 -9.732285z" fill-rule="evenodd"/><path fill="#ff00ff" d="m544.9554 60.884514l0 0c0 -5.3749924 4.3573 -9.732285 9.7323 -9.732285l0 0c2.5811157 0 5.0565796 1.0253639 6.881775 2.850521c1.8251343 1.8251572 2.8504639 4.300602 2.8504639 6.8817635l0 0c0 5.3749924 -4.357239 9.732285 -9.732239 9.732285l0 0c-5.375 0 -9.7323 -4.357292 -9.7323 -9.732285z" fill-rule="evenodd"/><path stroke="#000000" stroke-width="1.0" stroke-linejoin="round" stroke-linecap="butt" d="m544.9554 60.884514l0 0c0 -5.3749924 4.3573 -9.732285 9.7323 -9.732285l0 0c2.5811157 0 5.0565796 1.0253639 6.881775 2.850521c1.8251343 1.8251572 2.8504639 4.300602 2.8504639 6.8817635l0 0c0 5.3749924 -4.357239 9.732285 -9.732239 9.732285l0 0c-5.375 0 -9.7323 -4.357292 -9.7323 -9.732285z" fill-rule="evenodd"/><path fill="#ff00ff" d="m544.9554 180.7769l0 0c0 -5.3749847 4.3573 -9.732285 9.7323 -9.732285l0 0c2.5811157 0 5.0565796 1.0253601 6.881775 2.850525c1.8251343 1.8251495 2.8504639 4.300598 2.8504639 6.8817596l0 0c0 5.375 -4.357239 9.732285 -9.732239 9.732285l0 0c-5.375 0 -9.7323 -4.3572845 -9.7323 -9.732285z" fill-rule="evenodd"/><path stroke="#000000" stroke-width="1.0" stroke-linejoin="round" stroke-linecap="butt" d="m544.9554 180.7769l0 0c0 -5.3749847 4.3573 -9.732285 9.7323 -9.732285l0 0c2.5811157 0 5.0565796 1.0253601 6.881775 2.850525c1.8251343 1.8251495 2.8504639 4.300598 2.8504639 6.8817596l0 0c0 5.375 -4.357239 9.732285 -9.732239 9.732285l0 0c-5.375 0 -9.7323 -4.3572845 -9.7323 -9.732285z" fill-rule="evenodd"/><path fill="#ff00ff" d="m544.9554 300.66928l0 0c0 -5.3749695 4.3573 -9.732269 9.7323 -9.732269l0 0c2.5811157 0 5.0565796 1.0253601 6.881775 2.850525c1.8251343 1.8251343 2.8504639 4.300598 2.8504639 6.8817444l0 0c0 5.375 -4.357239 9.7323 -9.732239 9.7323l0 0c-5.375 0 -9.7323 -4.3573 -9.7323 -9.7323z" fill-rule="evenodd"/><path stroke="#000000" stroke-width="1.0" stroke-linejoin="round" stroke-linecap="butt" d="m544.9554 300.66928l0 0c0 -5.3749695 4.3573 -9.732269 9.7323 -9.732269l0 0c2.5811157 0 5.0565796 1.0253601 6.881775 2.850525c1.8251343 1.8251343 2.8504639 4.300598 2.8504639 6.8817444l0 0c0 5.375 -4.357239 9.7323 -9.732239 9.7323l0 0c-5.375 0 -9.7323 -4.3573 -9.7323 -9.7323z" fill-rule="evenodd"/><path fill="#ff00ff" d="m544.9554 420.56168l0 0c0 -5.375 4.3573 -9.732269 9.7323 -9.732269l0 0c2.5811157 0 5.0565796 1.0253601 6.881775 2.8504944c1.8251343 1.8251648 2.8504639 4.3006287 2.8504639 6.881775l0 0c0 5.375 -4.357239 9.7323 -9.732239 9.7323l0 0c-5.375 0 -9.7323 -4.3573 -9.7323 -9.7323z" fill-rule="evenodd"/><path stroke="#000000" stroke-width="1.0" stroke-linejoin="round" stroke-linecap="butt" d="m544.9554 420.56168l0 0c0 -5.375 4.3573 -9.732269 9.7323 -9.732269l0 0c2.5811157 0 5.0565796 1.0253601 6.881775 2.8504944c1.8251343 1.8251648 2.8504639 4.3006287 2.8504639 6.881775l0 0c0 5.375 -4.357239 9.7323 -9.732239 9.7323l0 0c-5.375 0 -9.7323 -4.3573 -9.7323 -9.7323z" fill-rule="evenodd"/><path fill="#ff00ff" d="m779.3622 269.6614l0 0c0 -5.3749695 4.3573 -9.732269 9.7323 -9.732269l0 0c2.5811768 0 5.0566406 1.0253601 6.881775 2.850525c1.8251343 1.8251343 2.850525 4.300598 2.850525 6.8817444l0 0c0 5.375 -4.3573 9.7323 -9.7323 9.7323l0 0c-5.375 0 -9.7323 -4.3573 -9.7323 -9.7323z" fill-rule="evenodd"/><path stroke="#000000" stroke-width="1.0" stroke-linejoin="round" stroke-linecap="butt" d="m779.3622 269.6614l0 0c0 -5.3749695 4.3573 -9.732269 9.7323 -9.732269l0 0c2.5811768 0 5.0566406 1.0253601 6.881775 2.850525c1.8251343 1.8251343 2.850525 4.300598 2.850525 6.8817444l0 0c0 5.375 -4.3573 9.7323 -9.7323 9.7323l0 0c-5.375 0 -9.7323 -4.3573 -9.7323 -9.7323z" fill-rule="evenodd"/><path fill="#ff00ff" d="m779.3622 389.5538l0 0c0 -5.375 4.3573 -9.732269 9.7323 -9.732269l0 0c2.5811768 0 5.0566406 1.0253601 6.881775 2.8504944c1.8251343 1.8251648 2.850525 4.3006287 2.850525 6.881775l0 0c0 5.375 -4.3573 9.7323 -9.7323 9.7323l0 0c-5.375 0 -9.7323 -4.3573 -9.7323 -9.7323z" fill-rule="evenodd"/><path stroke="#000000" stroke-width="1.0" stroke-linejoin="round" stroke-linecap="butt" d="m779.3622 389.5538l0 0c0 -5.375 4.3573 -9.732269 9.7323 -9.732269l0 0c2.5811768 0 5.0566406 1.0253601 6.881775 2.8504944c1.8251343 1.8251648 2.850525 4.3006287 2.850525 6.881775l0 0c0 5.375 -4.3573 9.7323 -9.7323 9.7323l0 0c-5.375 0 -9.7323 -4.3573 -9.7323 -9.7323z" fill-rule="evenodd"/><path fill="#ff00ff" d="m902.93176 243.6916l0 0c0 -5.375 4.3573 -9.732285 9.7323 -9.732285l0 0c2.5811157 0 5.0565796 1.0253601 6.881714 2.850525c1.8251953 1.8251495 2.850525 4.300598 2.850525 6.8817596l0 0c0 5.3749847 -4.357239 9.732285 -9.732239 9.732285l0 0c-5.375 0 -9.7323 -4.3573 -9.7323 -9.732285z" fill-rule="evenodd"/><path stroke="#000000" stroke-width="1.0" stroke-linejoin="round" stroke-linecap="butt" d="m902.93176 243.6916l0 0c0 -5.375 4.3573 -9.732285 9.7323 -9.732285l0 0c2.5811157 0 5.0565796 1.0253601 6.881714 2.850525c1.8251953 1.8251495 2.850525 4.300598 2.850525 6.8817596l0 0c0 5.3749847 -4.357239 9.732285 -9.732239 9.732285l0 0c-5.375 0 -9.7323 -4.3573 -9.7323 -9.732285z" fill-rule="evenodd"/><path fill="#000000" fill-opacity="0.0" d="m137.09448 247.82414l8.4409485 0" fill-rule="evenodd"/><path stroke="#000000" stroke-width="1.0" stroke-linejoin="round" stroke-linecap="butt" d="m137.09448 247.82414l8.4409485 0" fill-rule="evenodd"/><path fill="#000000" fill-opacity="0.0" d="m318.6483 247.82414l8.787415 0" fill-rule="evenodd"/><path stroke="#000000" stroke-width="1.0" stroke-linejoin="round" stroke-linecap="butt" d="m318.6483 247.82414l8.787415 0" fill-rule="evenodd"/><path fill="#000000" fill-opacity="0.0" d="m538.3018 60.884514l6.645691 0" fill-rule="evenodd"/><path stroke="#000000" stroke-width="1.0" stroke-linejoin="round" stroke-linecap="butt" d="m538.3018 60.884514l6.645691 0" fill-rule="evenodd"/><path fill="#000000" fill-opacity="0.0" d="m538.3018 180.7769l0 0" fill-rule="evenodd"/><path stroke="#000000" stroke-width="1.0" stroke-linejoin="round" stroke-linecap="butt" d="m538.3018 180.7769l0 0" fill-rule="evenodd"/><path fill="#000000" fill-opacity="0.0" d="m538.3018 180.7769l6.645691 0" fill-rule="evenodd"/><path stroke="#000000" stroke-width="1.0" stroke-linejoin="round" stroke-linecap="butt" d="m538.3018 180.7769l6.645691 0" fill-rule="evenodd"/><path fill="#000000" fill-opacity="0.0" d="m538.3097 300.66928l6.645691 0" fill-rule="evenodd"/><path stroke="#000000" stroke-width="1.0" stroke-linejoin="round" stroke-linecap="butt" d="m538.3097 300.66928l6.645691 0" fill-rule="evenodd"/><path fill="#000000" fill-opacity="0.0" d="m538.3097 420.56168l6.645691 0" fill-rule="evenodd"/><path stroke="#000000" stroke-width="1.0" stroke-linejoin="round" stroke-linecap="butt" d="m538.3097 420.56168l6.645691 0" fill-rule="evenodd"/><path fill="#000000" fill-opacity="0.0" d="m922.3963 243.6916l14.960632 0" fill-rule="evenodd"/><path stroke="#000000" stroke-width="1.0" stroke-linejoin="round" stroke-linecap="butt" d="m922.3963 243.6916l14.960632 0" fill-rule="evenodd"/><path fill="#000000" fill-opacity="0.0" d="m773.16797 269.6614l6.204712 0" fill-rule="evenodd"/><path stroke="#000000" stroke-width="1.0" stroke-linejoin="round" stroke-linecap="butt" d="m773.16797 269.6614l6.204712 0" fill-rule="evenodd"/><path fill="#000000" fill-opacity="0.0" d="m773.16797 389.5538l6.204712 0" fill-rule="evenodd"/><path stroke="#000000" stroke-width="1.0" stroke-linejoin="round" stroke-linecap="butt" d="m773.16797 389.5538l6.204712 0" fill-rule="evenodd"/><path fill="#cfe2f3" d="m25.603674 23.38845l0 0c0 -1.7916622 1.4524307 -3.244093 3.2440948 -3.244093l16.409449 0c0.8603859 0 1.6855354 0.34178734 2.2939224 0.9501724c0.6083832 0.6083851 0.9501724 1.4335346 0.9501724 2.2939205l0 12.976379c0 1.7916641 -1.4524307 3.2440948 -3.2440948 3.2440948l-16.409449 0c-1.7916641 0 -3.2440948 -1.4524307 -3.2440948 -3.2440948z" fill-rule="evenodd"/><path stroke="#000000" stroke-width="1.0" stroke-linejoin="round" stroke-linecap="butt" d="m25.603674 23.38845l0 0c0 -1.7916622 1.4524307 -3.244093 3.2440948 -3.244093l16.409449 0c0.8603859 0 1.6855354 0.34178734 2.2939224 0.9501724c0.6083832 0.6083851 0.9501724 1.4335346 0.9501724 2.2939205l0 12.976379c0 1.7916641 -1.4524307 3.2440948 -3.2440948 3.2440948l-16.409449 0c-1.7916641 0 -3.2440948 -1.4524307 -3.2440948 -3.2440948z" fill-rule="evenodd"/><path fill="#ff00ff" d="m27.32021 60.884514l0 0c0 -5.3749924 4.357292 -9.732285 9.732285 -9.732285l0 0c2.5811615 0 5.0566063 1.0253639 6.8817635 2.850521c1.8251572 1.8251572 2.850521 4.300602 2.850521 6.8817635l0 0c0 5.3749924 -4.357292 9.732285 -9.732285 9.732285l0 0c-5.3749924 0 -9.732285 -4.357292 -9.732285 -9.732285z" fill-rule="evenodd"/><path stroke="#000000" stroke-width="1.0" stroke-linejoin="round" stroke-linecap="butt" d="m27.32021 60.884514l0 0c0 -5.3749924 4.357292 -9.732285 9.732285 -9.732285l0 0c2.5811615 0 5.0566063 1.0253639 6.8817635 2.850521c1.8251572 1.8251572 2.850521 4.300602 2.850521 6.8817635l0 0c0 5.3749924 -4.357292 9.732285 -9.732285 9.732285l0 0c-5.3749924 0 -9.732285 -4.357292 -9.732285 -9.732285z" fill-rule="evenodd"/><path fill="#000000" fill-opacity="0.0" d="m54.51181 8.868767l164.37796 0l0 42.015747l-164.37796 0z" fill-rule="evenodd"/><path fill="#000000" d="m73.714935 22.42939l1.765625 0l0 7.71875q0 2.015625 -0.453125 3.203125q-0.453125 1.1875 -1.640625 1.9375q-1.1875 0.734375 -3.125 0.734375q-1.875 0 -3.078125 -0.640625q-1.1875 -0.65625 -1.703125 -1.875q-0.5 -1.234375 -0.5 -3.359375l0 -7.71875l1.765625 0l0 7.71875q0 1.734375 0.3125 2.5625q0.328125 0.8125 1.109375 1.265625q0.796875 0.453125 1.9375 0.453125q1.953125 0 2.78125 -0.890625q0.828125 -0.890625 0.828125 -3.390625l0 -7.71875zm3.8479462 10.46875l1.625 -0.25q0.125 0.96875 0.75 1.5q0.625 0.515625 1.75 0.515625q1.125 0 1.671875 -0.453125q0.546875 -0.46875 0.546875 -1.09375q0 -0.546875 -0.484375 -0.875q-0.328125 -0.21875 -1.671875 -0.546875q-1.8125 -0.46875 -2.515625 -0.796875q-0.6875 -0.328125 -1.046875 -0.90625q-0.359375 -0.59375 -0.359375 -1.3125q0 -0.640625 0.296875 -1.1875q0.296875 -0.5625 0.8125 -0.921875q0.375 -0.28125 1.03125 -0.46875q0.671875 -0.203125 1.421875 -0.203125q1.140625 0 2.0 0.328125q0.859375 0.328125 1.265625 0.890625q0.421875 0.5625 0.578125 1.5l-1.609375 0.21875q-0.109375 -0.75 -0.640625 -1.171875q-0.515625 -0.421875 -1.46875 -0.421875q-1.140625 0 -1.625 0.375q-0.46875 0.375 -0.46875 0.875q0 0.3125 0.1875 0.578125q0.203125 0.265625 0.640625 0.4375q0.234375 0.09375 1.4375 0.421875q1.75 0.453125 2.4375 0.75q0.6875 0.296875 1.078125 0.859375q0.390625 0.5625 0.390625 1.40625q0 0.828125 -0.484375 1.546875q-0.46875 0.71875 -1.375 1.125q-0.90625 0.390625 -2.046875 0.390625q-1.875 0 -2.875 -0.78125q-0.984375 -0.78125 -1.25 -2.328125zm16.609375 -0.21875l1.6875 0.203125q-0.40625 1.484375 -1.484375 2.3125q-1.078125 0.8125 -2.765625 0.8125q-2.125 0 -3.375 -1.296875q-1.234375 -1.3125 -1.234375 -3.671875q0 -2.453125 1.25 -3.796875q1.265625 -1.34375 3.265625 -1.34375q1.9375 0 3.15625 1.328125q1.234375 1.3125 1.234375 3.703125q0 0.15625 0 0.4375l-7.21875 0q0.09375 1.59375 0.90625 2.453125q0.8125 0.84375 2.015625 0.84375q0.90625 0 1.546875 -0.46875q0.640625 -0.484375 1.015625 -1.515625zm-5.390625 -2.65625l5.40625 0q-0.109375 -1.21875 -0.625 -1.828125q-0.78125 -0.953125 -2.03125 -0.953125q-1.125 0 -1.90625 0.765625q-0.765625 0.75 -0.84375 2.015625zm9.125717 5.765625l0 -9.671875l1.46875 0l0 1.46875q0.5625 -1.03125 1.03125 -1.359375q0.484375 -0.328125 1.0625 -0.328125q0.828125 0 1.6875 0.53125l-0.5625 1.515625q-0.609375 -0.359375 -1.203125 -0.359375q-0.546875 0 -0.96875 0.328125q-0.421875 0.328125 -0.609375 0.890625q-0.28125 0.875 -0.28125 1.921875l0 5.0625l-1.625 0zm11.802231 0l0 -8.40625l-1.453125 0l0 -1.265625l1.453125 0l0 -1.03125q0 -0.96875 0.171875 -1.453125q0.234375 -0.640625 0.828125 -1.03125q0.59375 -0.390625 1.671875 -0.390625q0.6875 0 1.53125 0.15625l-0.25 1.4375q-0.5 -0.09375 -0.953125 -0.09375q-0.75 0 -1.0625 0.328125q-0.3125 0.3125 -0.3125 1.1875l0 0.890625l1.890625 0l0 1.265625l-1.890625 0l0 8.40625l-1.625 0zm11.120804 0l0 -1.421875q-1.125 1.640625 -3.0625 1.640625q-0.859375 0 -1.609375 -0.328125q-0.734375 -0.328125 -1.09375 -0.828125q-0.359375 -0.5 -0.5 -1.21875q-0.109375 -0.46875 -0.109375 -1.53125l0 -5.984375l1.640625 0l0 5.359375q0 1.28125 0.109375 1.734375q0.15625 0.640625 0.65625 1.015625q0.5 0.375 1.234375 0.375q0.734375 0 1.375 -0.375q0.65625 -0.390625 0.921875 -1.03125q0.265625 -0.65625 0.265625 -1.890625l0 -5.1875l1.640625 0l0 9.671875l-1.46875 0zm4.047592 0l0 -9.671875l1.46875 0l0 1.375q1.0625 -1.59375 3.078125 -1.59375q0.875 0 1.609375 0.3125q0.734375 0.3125 1.09375 0.828125q0.375 0.5 0.515625 1.203125q0.09375 0.453125 0.09375 1.59375l0 5.953125l-1.640625 0l0 -5.890625q0 -1.0 -0.203125 -1.484375q-0.1875 -0.5 -0.671875 -0.796875q-0.484375 -0.296875 -1.140625 -0.296875q-1.046875 0 -1.8125 0.671875q-0.75 0.65625 -0.75 2.515625l0 5.28125l-1.640625 0zm16.688217 -3.546875l1.609375 0.21875q-0.265625 1.65625 -1.359375 2.609375q-1.078125 0.9375 -2.671875 0.9375q-1.984375 0 -3.1875 -1.296875q-1.203125 -1.296875 -1.203125 -3.71875q0 -1.578125 0.515625 -2.75q0.515625 -1.171875 1.578125 -1.75q1.0625 -0.59375 2.3125 -0.59375q1.578125 0 2.578125 0.796875q1.0 0.796875 1.28125 2.265625l-1.59375 0.234375q-0.234375 -0.96875 -0.8125 -1.453125q-0.578125 -0.5 -1.390625 -0.5q-1.234375 0 -2.015625 0.890625q-0.78125 0.890625 -0.78125 2.8125q0 1.953125 0.75 2.84375q0.75 0.875 1.953125 0.875q0.96875 0 1.609375 -0.59375q0.65625 -0.59375 0.828125 -1.828125zm6.59375 2.078125l0.234375 1.453125q-0.6875 0.140625 -1.234375 0.140625q-0.890625 0 -1.390625 -0.28125q-0.484375 -0.28125 -0.6875 -0.734375q-0.203125 -0.46875 -0.203125 -1.9375l0 -5.578125l-1.203125 0l0 -1.265625l1.203125 0l0 -2.390625l1.625 -0.984375l0 3.375l1.65625 0l0 1.265625l-1.65625 0l0 5.671875q0 0.6875 0.078125 0.890625q0.09375 0.203125 0.28125 0.328125q0.203125 0.109375 0.578125 0.109375q0.265625 0 0.71875 -0.0625zm1.6051788 -10.0l0 -1.890625l1.640625 0l0 1.890625l-1.640625 0zm0 11.46875l0 -9.671875l1.640625 0l0 9.671875l-1.640625 0zm3.5354462 -4.84375q0 -2.6875 1.484375 -3.96875q1.25 -1.078125 3.046875 -1.078125q2.0 0 3.265625 1.3125q1.265625 1.296875 1.265625 3.609375q0 1.859375 -0.5625 2.9375q-0.5625 1.0625 -1.640625 1.65625q-1.0625 0.59375 -2.328125 0.59375q-2.03125 0 -3.28125 -1.296875q-1.25 -1.3125 -1.25 -3.765625zm1.6875 0q0 1.859375 0.796875 2.796875q0.8125 0.921875 2.046875 0.921875q1.21875 0 2.03125 -0.921875q0.8125 -0.9375 0.8125 -2.84375q0 -1.796875 -0.8125 -2.71875q-0.8125 -0.921875 -2.03125 -0.921875q-1.234375 0 -2.046875 0.921875q-0.796875 0.90625 -0.796875 2.765625zm9.297592 4.84375l0 -9.671875l1.46875 0l0 1.375q1.0625 -1.59375 3.078125 -1.59375q0.875 0 1.609375 0.3125q0.734375 0.3125 1.09375 0.828125q0.375 0.5 0.515625 1.203125q0.09375 0.453125 0.09375 1.59375l0 5.953125l-1.640625 0l0 -5.890625q0 -1.0 -0.203125 -1.484375q-0.1875 -0.5 -0.671875 -0.796875q-0.484375 -0.296875 -1.140625 -0.296875q-1.046875 0 -1.8125 0.671875q-0.75 0.65625 -0.75 2.515625l0 5.28125l-1.640625 0z" fill-rule="nonzero"/><path fill="#000000" fill-opacity="0.0" d="m54.51181 39.87664l164.37796 0l0 42.015747l-164.37796 0z" fill-rule="evenodd"/><path fill="#000000" d="m71.19931 61.562263l0 -1.578125l5.65625 0l0 4.953125q-1.296875 1.046875 -2.6875 1.578125q-1.375 0.515625 -2.84375 0.515625q-1.96875 0 -3.578125 -0.84375q-1.609375 -0.84375 -2.421875 -2.4375q-0.8125 -1.59375 -0.8125 -3.5625q0 -1.953125 0.8125 -3.640625q0.8125 -1.6875 2.34375 -2.5q1.53125 -0.828125 3.515625 -0.828125q1.453125 0 2.625 0.46875q1.171875 0.46875 1.828125 1.3125q0.671875 0.828125 1.015625 2.171875l-1.59375 0.4375q-0.296875 -1.015625 -0.75 -1.59375q-0.4375 -0.59375 -1.265625 -0.9375q-0.828125 -0.34375 -1.84375 -0.34375q-1.203125 0 -2.09375 0.375q-0.890625 0.359375 -1.4375 0.96875q-0.53125 0.59375 -0.828125 1.3125q-0.515625 1.234375 -0.515625 2.6875q0 1.78125 0.609375 2.984375q0.625 1.203125 1.796875 1.796875q1.171875 0.578125 2.5 0.578125q1.140625 0 2.234375 -0.4375q1.09375 -0.453125 1.65625 -0.953125l0 -2.484375l-3.921875 0zm14.370804 4.046875q-0.921875 0.765625 -1.765625 1.09375q-0.828125 0.3125 -1.796875 0.3125q-1.59375 0 -2.453125 -0.78125q-0.859375 -0.78125 -0.859375 -1.984375q0 -0.71875 0.328125 -1.296875q0.328125 -0.59375 0.84375 -0.9375q0.53125 -0.359375 1.1875 -0.546875q0.46875 -0.125 1.453125 -0.25q1.984375 -0.234375 2.921875 -0.5625q0.015625 -0.34375 0.015625 -0.421875q0 -1.0 -0.46875 -1.421875q-0.625 -0.546875 -1.875 -0.546875q-1.15625 0 -1.703125 0.40625q-0.546875 0.40625 -0.8125 1.421875l-1.609375 -0.21875q0.21875 -1.015625 0.71875 -1.640625q0.5 -0.640625 1.453125 -0.984375q0.953125 -0.34375 2.1875 -0.34375q1.25 0 2.015625 0.296875q0.78125 0.28125 1.140625 0.734375q0.375 0.4375 0.515625 1.109375q0.078125 0.421875 0.078125 1.515625l0 2.1875q0 2.28125 0.109375 2.890625q0.109375 0.59375 0.40625 1.15625l-1.703125 0q-0.265625 -0.515625 -0.328125 -1.1875zm-0.140625 -3.671875q-0.890625 0.375 -2.671875 0.625q-1.015625 0.140625 -1.4375 0.328125q-0.421875 0.1875 -0.65625 0.53125q-0.21875 0.34375 -0.21875 0.78125q0 0.65625 0.5 1.09375q0.5 0.4375 1.453125 0.4375q0.9375 0 1.671875 -0.40625q0.75 -0.421875 1.09375 -1.140625q0.265625 -0.5625 0.265625 -1.640625l0 -0.609375zm10.469467 4.859375l0 -1.21875q-0.90625 1.4375 -2.703125 1.4375q-1.15625 0 -2.125 -0.640625q-0.96875 -0.640625 -1.5 -1.78125q-0.53125 -1.140625 -0.53125 -2.625q0 -1.453125 0.484375 -2.625q0.484375 -1.1875 1.4375 -1.8125q0.96875 -0.625 2.171875 -0.625q0.875 0 1.546875 0.375q0.6875 0.359375 1.109375 0.953125l0 -4.796875l1.640625 0l0 13.359375l-1.53125 0zm-5.171875 -4.828125q0 1.859375 0.78125 2.78125q0.78125 0.921875 1.84375 0.921875q1.078125 0 1.828125 -0.875q0.75 -0.890625 0.75 -2.6875q0 -1.984375 -0.765625 -2.90625q-0.765625 -0.9375 -1.890625 -0.9375q-1.078125 0 -1.8125 0.890625q-0.734375 0.890625 -0.734375 2.8125zm8.969467 5.625l1.59375 0.234375q0.109375 0.75 0.5625 1.078125q0.609375 0.453125 1.671875 0.453125q1.140625 0 1.75 -0.453125q0.625 -0.453125 0.84375 -1.265625q0.125 -0.5 0.109375 -2.109375q-1.0625 1.265625 -2.671875 1.265625q-2.0 0 -3.09375 -1.4375q-1.09375 -1.4375 -1.09375 -3.453125q0 -1.390625 0.5 -2.5625q0.515625 -1.171875 1.453125 -1.796875q0.953125 -0.640625 2.25 -0.640625q1.703125 0 2.8125 1.375l0 -1.15625l1.515625 0l0 8.359375q0 2.265625 -0.46875 3.203125q-0.453125 0.9375 -1.453125 1.484375q-0.984375 0.546875 -2.453125 0.546875q-1.71875 0 -2.796875 -0.78125q-1.0625 -0.765625 -1.03125 -2.34375zm1.359375 -5.8125q0 1.90625 0.75 2.78125q0.765625 0.875 1.90625 0.875q1.125 0 1.890625 -0.859375q0.765625 -0.875 0.765625 -2.734375q0 -1.78125 -0.796875 -2.671875q-0.78125 -0.90625 -1.890625 -0.90625q-1.09375 0 -1.859375 0.890625q-0.765625 0.875 -0.765625 2.625zm15.953842 1.90625l1.6875 0.203125q-0.40625 1.484375 -1.484375 2.3125q-1.078125 0.8125 -2.765625 0.8125q-2.125 0 -3.375 -1.296875q-1.234375 -1.3125 -1.234375 -3.671875q0 -2.453125 1.25 -3.796875q1.265625 -1.34375 3.265625 -1.34375q1.9375 0 3.15625 1.328125q1.234375 1.3125 1.234375 3.703125q0 0.15625 0 0.4375l-7.21875 0q0.09375 1.59375 0.90625 2.453125q0.8125 0.84375 2.015625 0.84375q0.90625 0 1.546875 -0.46875q0.640625 -0.484375 1.015625 -1.515625zm-5.390625 -2.65625l5.40625 0q-0.109375 -1.21875 -0.625 -1.828125q-0.78125 -0.953125 -2.03125 -0.953125q-1.125 0 -1.90625 0.765625q-0.765625 0.75 -0.84375 2.015625zm12.719467 4.296875l0.234375 1.453125q-0.6875 0.140625 -1.234375 0.140625q-0.890625 0 -1.390625 -0.28125q-0.484375 -0.28125 -0.6875 -0.734375q-0.203125 -0.46875 -0.203125 -1.9375l0 -5.578125l-1.203125 0l0 -1.265625l1.203125 0l0 -2.390625l1.625 -0.984375l0 3.375l1.65625 0l0 1.265625l-1.65625 0l0 5.671875q0 0.6875 0.078125 0.890625q0.09375 0.203125 0.28125 0.328125q0.203125 0.109375 0.578125 0.109375q0.265625 0 0.71875 -0.0625z" fill-rule="nonzero"/></g></svg>